<svg aria-hidden="true" style="width:0;height:0;position:absolute;overflow:hidden" xmlns="http://www.w3.org/2000/svg"><defs><symbol id="arrow-right" viewBox="0 0 49 32"><path fill="#fff" style="fill:var(--color1,#fff)" d="M0 16c0 .471.184.924.512 1.257s.772.521 1.236.521h41.223L31.97 28.962a1.807 1.807 0 0 0 0 2.518c.163.165.356.296.568.386a1.715 1.715 0 0 0 1.34 0 1.74 1.74 0 0 0 .568-.386l13.982-14.22c.163-.165.292-.361.38-.577a1.807 1.807 0 0 0-.38-1.939L34.446.524a1.717 1.717 0 0 0-1.908-.386 1.756 1.756 0 0 0-.947.963 1.804 1.804 0 0 0 .379 1.939l11.001 11.184H1.748c-.464 0-.908.187-1.236.521S0 15.53 0 16.002z"/></symbol><symbol id="arrow-left" viewBox="0 0 49 32"><path fill="#fff" style="fill:var(--color1,#fff)" d="M48.941 16c0-.471-.184-.924-.512-1.257s-.773-.521-1.236-.521H5.97L16.971 3.038a1.804 1.804 0 0 0 0-2.516 1.717 1.717 0 0 0-1.908-.386 1.745 1.745 0 0 0-.568.386L.513 14.742a1.804 1.804 0 0 0 0 2.516l13.982 14.22a1.75 1.75 0 0 0 1.238.522 1.745 1.745 0 0 0 1.238-.522 1.784 1.784 0 0 0 .512-1.259 1.804 1.804 0 0 0-.512-1.259L5.97 17.776h41.223c.463 0 .908-.187 1.236-.521s.512-.785.512-1.257z"/></symbol><symbol id="architect" viewBox="0 0 32 32"><path d="M8.48 25.04 8.813 28l2.16-2.053 3.693-10.133a5.217 5.217 0 0 1-2.36-1.307L8.479 25.04zm11.213-10.533a5.291 5.291 0 0 1-2.36 1.307l3.693 10.133L23.186 28l.347-2.96-3.84-10.533zm.227-3.04c.4-2.08-.8-3.92-2.587-4.56V5.334c0-.733-.6-1.333-1.333-1.333s-1.333.6-1.333 1.333v1.573C13.12 7.467 12 8.934 12 10.667c0 2.453 2.213 4.4 4.747 3.933 1.573-.293 2.867-1.56 3.173-3.133zM16 12c-.733 0-1.333-.6-1.333-1.333s.6-1.333 1.333-1.333 1.333.6 1.333 1.333S16.733 12 16 12z"/></symbol><symbol id="arrow-down" viewBox="0 0 32 32"><path fill="#2947a9" style="fill:var(--color2,#2947a9)" d="M16 0C7.168 0 0 7.168 0 16s7.168 16 16 16 16-7.168 16-15.999-7.168-16-16-16zm-.56 20.24-4.464-4.463c-.512-.512-.16-1.376.56-1.376h8.944c.72 0 1.072.864.56 1.36l-4.464 4.463a.805.805 0 0 1-1.136.016z"/></symbol><symbol id="call" viewBox="0 0 32 32"><path fill="#f9995d" style="fill:var(--color3,#f9995d)" d="M29.092 10.181a2.911 2.911 0 0 1 2.909 2.909v5.819a2.91 2.91 0 0 1-2.909 2.909h-1.545A11.64 11.64 0 0 1 16 32v-2.909a8.724 8.724 0 0 0 8.727-8.727v-8.728a8.728 8.728 0 0 0-17.455 0v10.182H2.908a2.91 2.91 0 0 1-2.909-2.909V13.09a2.905 2.905 0 0 1 2.909-2.909h1.545a11.637 11.637 0 0 1 19.244-7.272 11.64 11.64 0 0 1 3.85 7.272h1.545zM9.833 21.505l1.542-2.467a8.679 8.679 0 0 0 4.626 1.325 8.69 8.69 0 0 0 4.626-1.325l1.542 2.467a11.576 11.576 0 0 1-6.168 1.767 11.59 11.59 0 0 1-6.168-1.767z"/></symbol><symbol id="construction" viewBox="0 0 32 32"><path fill="#292e3d" style="fill:var(--color4,#292e3d)" d="M25.321 2.667H12.013a2.679 2.679 0 0 0-2.68 2.68v7.516l-6.269 6.189A1.335 1.335 0 0 0 4 21.333V28a1.334 1.334 0 0 0 1.334 1.333h21.333A1.333 1.333 0 0 0 28.001 28V5.345a2.677 2.677 0 0 0-2.679-2.679zM14.563 20.148v6.519H6.667v-7.424l3.983-3.932 3.913 4.004v.833zM17.333 12h-2.667V9.333h2.667V12zm5.334 10.667H20V20h2.667v2.667zm0-5.334H20v-2.667h2.667v2.667zm0-5.333H20V9.333h2.667V12z"/><path fill="#14171f" style="fill:var(--color5,#14171f)" d="M9.333 20H12v2.667H9.333V20z"/></symbol><symbol id="consult" viewBox="0 0 32 32"><path d="M14.667 8h4l4.387-4.4a1.334 1.334 0 0 1 1.894 0l3.44 3.453a1.336 1.336 0 0 1 0 1.88L25.335 12H14.668v2.667a1.333 1.333 0 1 1-2.666 0v-4A2.67 2.67 0 0 1 14.669 8zm-8 6.667V20l-3.053 3.053a1.336 1.336 0 0 0 0 1.88l3.44 3.453a1.334 1.334 0 0 0 1.894 0l5.72-5.72h5.333a1.33 1.33 0 0 0 1.333-1.334v-1.333h1.333a1.333 1.333 0 0 0 1.334-1.333v-1.333h1.333A1.333 1.333 0 0 0 26.667 16v-1.333h-9.333V16a2.67 2.67 0 0 1-2.667 2.667H12A2.668 2.668 0 0 1 9.333 16v-4l-2.667 2.667z"/></symbol><symbol id="design" viewBox="0 0 32 32"><path fill="#f9995d" style="fill:var(--color3,#f9995d)" d="m32 24.27-9.07-9.07 2.566-2.566-6.129-6.129-2.566 2.566-9.07-9.07-7.73 7.73 9.07 9.071-7.779 7.779v6.129h6.129l7.779-7.779 9.07 9.07 7.73-7.73zm-20.609-9.79L4.625 7.73 7.73 4.625l2.076 2.076-1.945 1.945 2.304 2.304 1.945-1.945 2.37 2.37-3.089 3.105zm6.129 6.129 3.105-3.105 2.37 2.37-1.945 1.945 2.304 2.304 1.945-1.945 2.076 2.076-3.105 3.105-6.75-6.75zm3.6-15.848 4.148-4.15 6.125 6.125-4.148 4.15-6.125-6.125z"/></symbol><symbol id="electric" viewBox="0 0 32 32"><path fill="#fff" style="fill:var(--color1,#fff)" d="M28 18.667c0-.733-.6-1.333-1.333-1.333H24v2.667h2.667c.733 0 1.333-.6 1.333-1.333zm-1.333 4H24v2.667h2.667c.733 0 1.333-.6 1.333-1.333s-.6-1.333-1.333-1.333zm-10.667-4h-2.667V24H16c0 1.467 1.2 2.667 2.667 2.667h4V16h-4A2.675 2.675 0 0 0 16 18.667z"/><path fill="#fff" style="fill:var(--color1,#fff)" d="M6.667 17.333c0-1.467 1.2-2.667 2.667-2.667h2c2.573 0 4.667-2.093 4.667-4.667s-2.093-4.667-4.667-4.667H6.667c-.733 0-1.333.6-1.333 1.333s.6 1.333 1.333 1.333h4.667c1.107 0 2 .893 2 2s-.893 2-2 2h-2c-2.947 0-5.333 2.387-5.333 5.333s2.387 5.333 5.333 5.333h2.667v-2.667H9.334a2.675 2.675 0 0 1-2.667-2.667z"/></symbol><symbol id="facebook" viewBox="0 0 32 32"><path fill="#3d445c" style="fill:var(--color6,#3d445c)" d="M0 16.089C0 24.044 5.777 30.658 13.333 32V20.444h-4V16h4v-3.556c0-4 2.577-6.221 6.223-6.221 1.155 0 2.4.177 3.555.355v4.089h-2.044c-1.956 0-2.4.977-2.4 2.223v3.111h4.267l-.711 4.444h-3.556v11.556C26.223 30.66 32 24.046 32 16.09 32 7.24 24.8.001 16 .001S0 7.241 0 16.09z"/></symbol><symbol id="linkedin" viewBox="0 0 32 32"><path fill="#3d445c" style="fill:var(--color6,#3d445c)" d="M16 0C7.163 0 0 7.163 0 16s7.163 16 16 16 16-7.163 16-16S24.837 0 16 0zm-3.917 22.632h-3.24V12.205h3.24v10.427zm-1.64-11.707c-1.023 0-1.685-.725-1.685-1.621 0-.915.682-1.618 1.727-1.618s1.685.703 1.705 1.618c0 .897-.66 1.621-1.747 1.621zm13.474 11.707h-3.24v-5.778c0-1.345-.47-2.258-1.642-2.258-.895 0-1.427.618-1.662 1.213-.087.212-.108.512-.108.81v6.012h-3.242v-7.1c0-1.302-.042-2.39-.085-3.327h2.815l.148 1.448h.065c.427-.68 1.472-1.683 3.22-1.683 2.132 0 3.73 1.429 3.73 4.498v6.165z"/></symbol><symbol id="logo" viewBox="0 0 110 32"><path fill="#2947a9" style="fill:var(--color2,#2947a9)" d="M12.801 24.702V32L25.6 24.607V17.31l-12.799 7.392z"/><path fill="#0b267d" style="fill:var(--color7,#0b267d)" d="m18.53 10.607 6.315-3.649L12.801 0v7.298l5.729 3.309z"/><path fill="#91a1d4" style="fill:var(--color8,#91a1d4)" d="M7.827 12.786v7.3l4.974 2.872v-7.297l-4.974-2.876z"/><path fill="#2947a9" style="fill:var(--color2,#2947a9)" d="m25.6 8.266-12.799 7.396v7.297L25.6 15.566v-7.3zM.762 6.954l6.277 3.67L12.8 7.298V0L.761 6.954z"/><path fill="#91a1d4" style="fill:var(--color8,#91a1d4)" d="M6.317 20.958V11.91L0 8.262v16.344l12.801 7.393v-7.298l-6.484-3.743z"/><path fill="#2947a9" style="fill:var(--color2,#2947a9)" d="m51.301 8.517-3.336 14.388h3.434l1.273-5.457q.163-.725.454-1.219.296-.498.711-.75.053-.032.108-.06.376-.192.85-.192.584 0 .906.291.08.073.145.163l.007.01q.317.453.136 1.253l-1.396 5.96h3.439l1.515-6.508q.262-1.169-.035-2.018-.183-.538-.535-.921-.207-.225-.471-.396l-.016-.01q-.711-.454-1.711-.454-1.012 0-1.801.405-.558.288-.986.708-.174.17-.326.363-.066.085-.129.172-.095.134-.181.275l1.38-6.003h-3.434zm-2.365 3.735.627-2.684H37.435l-.627 2.684h4.347l-2.467 10.653h3.479l2.467-10.653h4.303zm24.576-2.684v13.337h6.789q2.428 0 3.637-.938.435-.338.714-.775.5-.783.5-1.884 0-.744-.286-1.354-.181-.386-.474-.718-.755-.859-2.29-1.061v-.02q1.341-.217 2.008-1.005l.03-.036q.24-.293.395-.626.276-.598.276-1.323 0-1.215-.571-2.029-.248-.353-.604-.631-1.169-.918-3.637-.938h-6.488zm5.881 5.457h-2.526v-2.911h2.526q1.154 0 1.592.56.269.343.269.896t-.269.896q-.438.56-1.592.56zm15.309-1.811q-1.204-.617-2.798-.617-1.559 0-2.773.617-.58.296-1.039.723-.496.462-.851 1.078-.676 1.179-.676 2.837t.676 2.842q.348.602.833 1.057.466.437 1.057.739 1.214.617 2.773.617 1.594 0 2.798-.617.584-.299 1.044-.731.488-.458.837-1.065.676-1.184.676-2.842t-.676-2.837q-.355-.621-.855-1.086-.453-.422-1.025-.715zM63.343 22.51q1.135.577 2.63.577 1.13 0 2.092-.291.962-.296 1.677-.839.55-.421.881-.973.1-.166.18-.344l-2.827-1.11q-.131.268-.319.489-.164.193-.372.35-.444.335-1.169.335-.587 0-1.021-.232-.163-.089-.302-.208-.229-.196-.389-.473-.24-.424-.251-1.031h6.996q.024-.083.045-.167.081-.325.112-.662.044-.424.044-.804 0-1.377-.548-2.388-.234-.432-.558-.78-.435-.467-1.031-.784-1.036-.558-2.511-.558-1.781 0-3.064.77-.62.37-1.104.871-.517.536-.88 1.222-.696 1.322-.696 3.02 0 1.279.541 2.259.041.075.086.149.2.328.452.61.536.601 1.304.993zm1.049-5.61q.105-.341.263-.651.231-.45.583-.761.085-.075.177-.142l.007-.005Q65.899 15 66.619 15q.444 0 .765.173.108.058.201.134.185.153.307.384.183.34.183.868 0 .162-.016.34h-3.667zm41.244.907 3.509-5.007h-3.864l-1.828 3.334-1.808-3.334h-3.962l3.504 4.992-3.648 5.113h3.864l1.952-3.488 1.927 3.488h3.942l-3.587-5.099zm-14.661-2.532q.398-.23.93-.23.598 0 1.019.273l.012.008q.424.281.646.908t.222 1.618-.222 1.609q-.222.617-.646.908l-.053.035q-.408.256-.978.256-.505 0-.889-.215-.063-.035-.123-.076-.424-.291-.647-.908t-.222-1.609.222-1.618q.222-.627.647-.908.04-.027.082-.051zm-11.261 5.183h-2.847v-2.951h2.847q.953 0 1.417.375.13.105.224.237.24.336.24.844 0 .551-.264.905-.086.115-.199.21-.464.38-1.417.38z"/></symbol><symbol id="renovation" viewBox="0 0 32 32"><path fill="#fff" style="fill:var(--color1,#fff)" d="M26 4a3.336 3.336 0 0 0-3.333 3.333c0 .476.104.928.285 1.34l-2.607 2.932a5.303 5.303 0 0 0-3.012-.939c-.987 0-1.899.288-2.692.755L11.609 8.39l-.031.031a3.96 3.96 0 0 0 .421-1.755A4.004 4.004 0 0 0 9.53 2.971a3.992 3.992 0 0 0-4.359.867 4 4 0 0 0 2.828 6.828c.633 0 1.223-.16 1.755-.421l-.031.031 3.032 3.031A5.272 5.272 0 0 0 11.999 16c0 1.329.507 2.532 1.313 3.468l-3.436 3.435a3.304 3.304 0 0 0-1.211-.236c-1.837 0-3.333 1.495-3.333 3.333s1.496 3.333 3.333 3.333A3.337 3.337 0 0 0 11.998 26c0-.428-.088-.835-.236-1.212l3.784-3.784c.561.2 1.156.329 1.785.329A5.339 5.339 0 0 0 22.664 16c0-.848-.217-1.639-.571-2.352l2.823-3.177c.341.117.701.196 1.081.196 1.839 0 3.333-1.495 3.333-3.333s-1.495-3.333-3.333-3.333zm-8.667 14.667c-1.471 0-2.667-1.196-2.667-2.667s1.196-2.667 2.667-2.667C18.804 13.333 20 14.529 20 16s-1.196 2.667-2.667 2.667z"/></symbol><symbol id="repair" viewBox="0 0 32 32"><path fill="#fff" style="fill:var(--color1,#fff)" d="M24 21.333h-2.667V20H10.666v1.333H7.999V20H2.666v6.667h26.667V20H24v1.333zm2.667-10.666h-4V8c0-1.467-1.2-2.667-2.667-2.667h-8A2.675 2.675 0 0 0 9.333 8v2.667h-4a2.675 2.675 0 0 0-2.667 2.667v5.333h5.333V16h2.667v2.667h10.667V16H24v2.667h5.333v-5.333c0-1.467-1.2-2.667-2.667-2.667zm-6.667 0h-8V8h8v2.667z"/></symbol><symbol id="twitter" viewBox="0 0 32 32"><path fill="#3d445c" style="fill:var(--color6,#3d445c)" d="M16 0C7.163 0 0 7.163 0 16s7.163 16 16 16 16-7.163 16-16S24.837 0 16 0zm6.508 13.107c.007.137.008.274.008.406 0 4.167-3.168 8.969-8.965 8.969a8.887 8.887 0 0 1-4.83-1.417c.245.03.497.042.752.042a6.313 6.313 0 0 0 3.913-1.348 3.155 3.155 0 0 1-2.944-2.187c.472.09.958.071 1.422-.055a3.156 3.156 0 0 1-2.529-3.09v-.038c.425.235.912.378 1.428.395a3.152 3.152 0 0 1-.975-4.211 8.96 8.96 0 0 0 6.495 3.295 3.151 3.151 0 0 1 5.369-2.875 6.333 6.333 0 0 0 2-.765 3.164 3.164 0 0 1-1.385 1.745 6.323 6.323 0 0 0 1.81-.498 6.386 6.386 0 0 1-1.572 1.632z"/></symbol></defs></svg>