<svg width="40.000000" height="40.000000" viewBox="0 0 40 40" fill="none" xmlns="http://www.w3.org/2000/svg" xmlns:xlink="http://www.w3.org/1999/xlink">
	<desc>
			Created with Pixso.
	</desc>
	<defs>
		<clipPath id="clip2_92">
			<rect id="function=architect" width="40.000000" height="40.000000" fill="white" fill-opacity="0"/>
		</clipPath>
	</defs>
	<rect id="function=architect" width="40.000000" height="40.000000" fill="#FFFFFF" fill-opacity="0"/>
	<g clip-path="url(#clip2_92)">
		<path id="Vector" d="M10.6 31.3L11.0167 35L13.7166 32.4333L18.3333 19.7666C17.2 19.4834 16.2 18.9167 15.3833 18.1333L10.6 31.3ZM24.6166 18.1333C23.8 18.9167 22.7833 19.4834 21.6666 19.7666L26.2833 32.4333L28.9833 35L29.4166 31.3L24.6166 18.1333ZM24.9 14.3333C25.4 11.7334 23.9 9.43335 21.6666 8.6333L21.6666 6.66675C21.6666 5.75 20.9166 5 20 5C19.0833 5 18.3333 5.75 18.3333 6.66675L18.3333 8.6333C16.4 9.33325 15 11.1667 15 13.3333C15 16.3999 17.7667 18.8333 20.9333 18.25C22.9 17.8833 24.5167 16.3 24.9 14.3333ZM20 15C19.0833 15 18.3333 14.25 18.3333 13.3333C18.3333 12.4167 19.0833 11.6667 20 11.6667C20.9166 11.6667 21.6666 12.4167 21.6666 13.3333C21.6666 14.25 20.9166 15 20 15Z" fill="#292E3D" fill-opacity="1.000000" fill-rule="nonzero"/>
	</g>
</svg>
