<svg width="26.000000" height="17.000000" viewBox="0 0 26 17" fill="none" xmlns="http://www.w3.org/2000/svg" xmlns:xlink="http://www.w3.org/1999/xlink">
	<desc>
			Created with Pixso.
	</desc>
	<defs/>
	<path id="Vector" d="M0 8.5C0 8.75046 0.0978241 8.99063 0.271957 9.16772C0.446075 9.34482 0.682251 9.44431 0.928513 9.44431L22.8284 9.44431L16.9843 15.3859C16.898 15.4737 16.8295 15.5779 16.7828 15.6927C16.7361 15.8074 16.7121 15.9303 16.7121 16.0545C16.7121 16.1786 16.7361 16.3016 16.7828 16.4163C16.8295 16.531 16.898 16.6353 16.9843 16.7231C17.0707 16.8109 17.1732 16.8805 17.2859 16.928C17.3987 16.9756 17.5196 17 17.6417 17C17.7638 17 17.8847 16.9756 17.9975 16.928C18.1103 16.8805 18.2128 16.8109 18.2991 16.7231L25.7272 9.16858C25.8137 9.08084 25.8823 8.97665 25.9291 8.86194C25.9759 8.74719 26 8.62421 26 8.5C26 8.37579 25.9759 8.25281 25.9291 8.13809C25.8823 8.02335 25.8137 7.91916 25.7272 7.83142L18.2991 0.276947C18.2128 0.189148 18.1103 0.119507 17.9975 0.0719604C17.8847 0.0244446 17.7638 0 17.6417 0C17.5196 0 17.3988 0.0244446 17.2859 0.0719604C17.1732 0.119507 17.0707 0.189148 16.9843 0.276947C16.898 0.364746 16.8295 0.468964 16.7828 0.583679C16.7361 0.698395 16.7121 0.82135 16.7121 0.945496C16.7121 1.06967 16.7361 1.19263 16.7828 1.30734C16.8295 1.42206 16.898 1.52628 16.9843 1.61407L22.8284 7.55569L0.928513 7.55569C0.682251 7.55569 0.446075 7.65518 0.271957 7.83228C0.0978241 8.00937 0 8.24954 0 8.5Z" fill="#FFFFFF" fill-opacity="1.000000" fill-rule="evenodd"/>
</svg>
