<svg width="26.000000" height="17.000000" viewBox="0 0 26 17" fill="none" xmlns="http://www.w3.org/2000/svg" xmlns:xlink="http://www.w3.org/1999/xlink">
	<desc>
			Created with Pixso.
	</desc>
	<defs/>
	<path id="Vector" d="M26 8.5C26 8.24954 25.9022 8.00937 25.7281 7.83228C25.5539 7.65518 25.3177 7.55569 25.0715 7.55569L3.1716 7.55569L9.01566 1.61407C9.10199 1.52628 9.17047 1.42206 9.21719 1.30734C9.26392 1.19263 9.28796 1.06967 9.28796 0.945496C9.28796 0.82135 9.26392 0.698395 9.21719 0.583679C9.17047 0.468964 9.10199 0.364716 9.01566 0.276947C8.92932 0.189148 8.82684 0.119476 8.71405 0.0719604C8.60126 0.0244446 8.48035 0 8.35828 0C8.23618 0 8.1153 0.0244446 8.0025 0.0719604C7.88971 0.119476 7.7872 0.189148 7.7009 0.276947L0.272797 7.83142C0.18631 7.91916 0.117706 8.02335 0.0708923 8.13806C0.0240784 8.25281 0 8.37579 0 8.5C0 8.62421 0.0240784 8.74719 0.0708923 8.86191C0.117706 8.97665 0.18631 9.08084 0.272797 9.16858L7.70087 16.7231C7.7872 16.8109 7.88971 16.8805 8.0025 16.928C8.1153 16.9756 8.23618 17 8.35828 17C8.48035 17 8.60126 16.9756 8.71405 16.928C8.82684 16.8805 8.92932 16.8109 9.01566 16.7231C9.10199 16.6353 9.17047 16.531 9.21719 16.4163C9.26392 16.3016 9.28796 16.1786 9.28796 16.0545C9.28796 15.9303 9.26392 15.8074 9.21719 15.6927C9.17047 15.5779 9.10199 15.4737 9.01566 15.3859L3.1716 9.44431L25.0715 9.44431C25.3177 9.44431 25.5539 9.34482 25.7281 9.16772C25.9022 8.99063 26 8.75046 26 8.5Z" fill="#FFFFFF" fill-opacity="1.000000" fill-rule="evenodd"/>
</svg>
