<svg width="36.666626" height="36.664856" viewBox="0 0 36.6666 36.6649" fill="none" xmlns="http://www.w3.org/2000/svg" xmlns:xlink="http://www.w3.org/1999/xlink">
	<desc>
			Created with Pixso.
	</desc>
	<defs/>
	<path id="Vector" d="M33.3334 11.6649C34.2174 11.6649 35.0652 12.0161 35.6903 12.6412C36.3154 13.2663 36.6666 14.1141 36.6666 14.9982L36.6666 21.6649C36.6666 22.549 36.3154 23.3968 35.6903 24.0219C35.0652 24.647 34.2174 24.9982 33.3334 24.9982L31.5634 24.9982C31.157 28.2204 29.5887 31.1835 27.153 33.3315C24.717 35.4796 21.5811 36.6648 18.3334 36.6649L18.3334 33.3315C20.9855 33.3315 23.5291 32.278 25.4044 30.4026C27.2798 28.5272 28.3334 25.9837 28.3334 23.3315L28.3334 13.3315C28.3334 10.6794 27.2798 8.13583 25.4044 6.26047C23.5291 4.3851 20.9855 3.33154 18.3334 3.33154C15.6812 3.33154 13.1376 4.3851 11.2622 6.26047C9.38684 8.13583 8.33337 10.6794 8.33337 13.3315L8.33337 24.9982L3.33337 24.9982C2.44922 24.9982 1.60144 24.647 0.976318 24.0219C0.351196 23.3968 0 22.549 0 21.6649L0 14.9982C0 14.1141 0.351196 13.2663 0.976318 12.6412C1.60144 12.0161 2.44922 11.6649 3.33337 11.6649L5.10339 11.6649C5.51001 8.44302 7.07849 5.48032 9.51428 3.33267C11.9501 1.185 15.0859 0 18.3334 0C21.5807 0 24.7166 1.185 27.1523 3.33267C29.5881 5.48032 31.1566 8.44302 31.5634 11.6649L33.3334 11.6649ZM11.2667 24.6399L13.0333 21.8132C14.6218 22.8083 16.459 23.3346 18.3334 23.3315C20.2078 23.3346 22.0449 22.8083 23.6333 21.8132L25.4 24.6399C23.2821 25.9668 20.8325 26.6687 18.3334 26.6649C15.8341 26.6687 13.3845 25.9668 11.2667 24.6399Z" fill="#F9995D" fill-opacity="1.000000" fill-rule="nonzero"/>
</svg>
