<svg width="40.000000" height="40.000000" viewBox="0 0 40 40" fill="none" xmlns="http://www.w3.org/2000/svg" xmlns:xlink="http://www.w3.org/1999/xlink">
	<desc>
			Created with Pixso.
	</desc>
	<defs>
		<clipPath id="clip2_71">
			<rect id="function=construction" width="40.000000" height="40.000000" fill="white" fill-opacity="0"/>
		</clipPath>
	</defs>
	<rect id="function=construction" width="40.000000" height="40.000000" fill="#FFFFFF" fill-opacity="0"/>
	<g clip-path="url(#clip2_71)">
		<path id="Vector" d="M31.6517 3.33325L15.0167 3.33325C13.165 3.33325 11.6666 4.83154 11.6666 6.68323L11.6666 16.0782L3.82996 23.8149C3.59521 24.0471 3.43469 24.3439 3.36877 24.6675C3.30298 24.9911 3.33472 25.327 3.46008 25.6326C3.58545 25.9381 3.79871 26.1995 4.07288 26.3835C4.34705 26.5677 4.6698 26.6661 5 26.6666L5 34.9999C5 35.4419 5.17566 35.8658 5.48816 36.1785C5.80078 36.491 6.22461 36.6666 6.66663 36.6666L33.3334 36.6666C33.7754 36.6666 34.1993 36.491 34.5118 36.1785C34.8245 35.8658 35 35.4419 35 34.9999L35 6.68164C35 4.83154 33.5033 3.33325 31.6517 3.33325ZM18.2034 25.1849L18.2034 33.3333L8.33337 33.3333L8.33337 24.0532L13.3116 19.1383L18.2034 24.1433L18.2034 25.1849ZM21.6666 14.9999L18.3334 14.9999L18.3334 11.6666L21.6666 11.6666L21.6666 14.9999ZM28.3334 28.3333L25 28.3333L25 24.9999L28.3334 24.9999L28.3334 28.3333ZM28.3334 21.6666L25 21.6666L25 18.3333L28.3334 18.3333L28.3334 21.6666ZM28.3334 14.9999L25 14.9999L25 11.6666L28.3334 11.6666L28.3334 14.9999Z" fill="#292E3D" fill-opacity="1.000000" fill-rule="nonzero"/>
		<path id="Vector" d="M11.6666 25L15 25L15 28.3334L11.6666 28.3334L11.6666 25Z" fill="#14171F" fill-opacity="1.000000" fill-rule="nonzero"/>
	</g>
</svg>
