<svg width="40.000000" height="40.000000" viewBox="0 0 40 40" fill="none" xmlns="http://www.w3.org/2000/svg" xmlns:xlink="http://www.w3.org/1999/xlink">
	<desc>
			Created with Pixso.
	</desc>
	<defs>
		<clipPath id="clip2_82">
			<rect id="function=consult" width="40.000000" height="40.000000" fill="white" fill-opacity="0"/>
		</clipPath>
	</defs>
	<rect id="function=consult" width="40.000000" height="40.000000" fill="#FFFFFF" fill-opacity="0"/>
	<g clip-path="url(#clip2_82)">
		<path id="Vector" d="M18.3333 10.0001L23.3333 10.0001L28.8167 4.50012C28.9716 4.34387 29.1559 4.21985 29.359 4.13525C29.5621 4.05066 29.7799 4.00708 30 4.00708C30.22 4.00708 30.4378 4.05066 30.6409 4.13525C30.844 4.21985 31.0284 4.34387 31.1833 4.50012L35.4833 8.81677C35.7937 9.12903 35.968 9.55139 35.968 9.9917C35.968 10.432 35.7937 10.8545 35.4833 11.1667L31.6666 15.0001L18.3333 15.0001L18.3333 18.3334C18.3333 18.7754 18.1577 19.1993 17.8452 19.512C17.5326 19.8245 17.1087 20.0001 16.6666 20.0001C16.2246 20.0001 15.8007 19.8245 15.4881 19.512C15.1756 19.1993 15 18.7754 15 18.3334L15 13.3334C15 12.4493 15.3512 11.6016 15.9763 10.9764C16.6014 10.3513 17.4492 10.0001 18.3333 10.0001ZM8.33331 18.3334L8.33331 25.0001L4.51663 28.8168C4.20621 29.129 4.03198 29.5514 4.03198 29.9917C4.03198 30.432 4.20621 30.8545 4.51663 31.1667L8.81665 35.4834C8.97159 35.6396 9.15591 35.7637 9.35901 35.8483C9.5621 35.9329 9.77994 35.9764 9.99997 35.9764C10.22 35.9764 10.4378 35.9329 10.6409 35.8483C10.844 35.7637 11.0284 35.6396 11.1833 35.4834L18.3333 28.3334L25 28.3334C25.442 28.3334 25.8659 28.1578 26.1785 27.8452C26.491 27.5327 26.6666 27.1088 26.6666 26.6667L26.6666 25.0001L28.3333 25.0001C28.7753 25.0001 29.1992 24.8245 29.5118 24.512C29.8244 24.1993 30 23.7754 30 23.3334L30 21.6667L31.6666 21.6667C32.1087 21.6667 32.5326 21.4911 32.8452 21.1786C33.1577 20.866 33.3333 20.4421 33.3333 20.0001L33.3333 18.3334L21.6666 18.3334L21.6666 20.0001C21.6666 20.8842 21.3154 21.7319 20.6903 22.3571C20.0652 22.9822 19.2173 23.3334 18.3333 23.3334L15 23.3334C14.1159 23.3334 13.2681 22.9822 12.6429 22.3571C12.0178 21.7319 11.6666 20.8842 11.6666 20.0001L11.6666 15.0001L8.33331 18.3334Z" fill="#292E3D" fill-opacity="1.000000" fill-rule="nonzero"/>
	</g>
</svg>
