<svg width="32.633362" height="32.633362" viewBox="0 0 32.6334 32.6334" fill="none" xmlns="http://www.w3.org/2000/svg" xmlns:xlink="http://www.w3.org/1999/xlink">
	<desc>
			Created with Pixso.
	</desc>
	<defs/>
	<path id="Vector" d="M32.6334 24.75L23.3834 15.5L26 12.8833L19.75 6.63333L17.1334 9.25L7.88336 0L0 7.88333L9.25 17.1334L1.31665 25.0667L1.31665 31.3167L7.56665 31.3167L15.5 23.3834L24.75 32.6334L32.6334 24.75ZM11.6166 14.7667L4.71667 7.88333L7.88336 4.71667L10 6.83334L8.01666 8.81665L10.3666 11.1667L12.35 9.18332L14.7667 11.6L11.6166 14.7667ZM17.8666 21.0167L21.0333 17.85L23.45 20.2667L21.4667 22.25L23.8167 24.6L25.8 22.6166L27.9167 24.7333L24.75 27.9L17.8666 21.0167ZM21.5383 4.85501L25.7683 0.623322L32.015 6.87L27.785 11.1017L21.5383 4.85501Z" fill="#F9995D" fill-opacity="1.000000" fill-rule="nonzero"/>
</svg>
