<svg width="40.000000" height="40.000000" viewBox="0 0 40 40" fill="none" xmlns="http://www.w3.org/2000/svg" xmlns:xlink="http://www.w3.org/1999/xlink">
	<desc>
			Created with Pixso.
	</desc>
	<defs>
		<clipPath id="clip2_97">
			<rect id="function=Electric" width="40.000000" height="40.000000" fill="white" fill-opacity="0"/>
		</clipPath>
	</defs>
	<rect id="function=Electric" width="40.000000" height="40.000000" fill="#FFFFFF" fill-opacity="0"/>
	<g clip-path="url(#clip2_97)">
		<path id="Vector" d="M35 23.3333C35 22.4167 34.25 21.6667 33.3333 21.6667L30 21.6667L30 25L33.3333 25C34.25 25 35 24.25 35 23.3333ZM33.3333 28.3333L30 28.3333L30 31.6667L33.3333 31.6667C34.25 31.6667 35 30.9167 35 30C35 29.0833 34.25 28.3333 33.3333 28.3333ZM20 23.3333L16.6666 23.3333L16.6666 30L20 30C20 31.8333 21.5 33.3333 23.3333 33.3333L28.3333 33.3333L28.3333 20L23.3333 20C21.5 20 20 21.5 20 23.3333Z" fill="#FFFFFF" fill-opacity="1.000000" fill-rule="nonzero"/>
		<path id="Vector" d="M8.33334 21.6667C8.33334 19.8335 9.83334 18.3335 11.6667 18.3335L14.1667 18.3335C17.3833 18.3335 20 15.7168 20 12.5C20 9.28345 17.3833 6.66675 14.1667 6.66675L8.33334 6.66675C7.41666 6.66675 6.66666 7.41675 6.66666 8.3335C6.66666 9.25 7.41666 10 8.33334 10L14.1667 10C15.55 10 16.6667 11.1167 16.6667 12.5C16.6667 13.8833 15.55 15 14.1667 15L11.6667 15C7.98334 15 5 17.9834 5 21.6667C5 25.3501 7.98334 28.3335 11.6667 28.3335L15 28.3335L15 25L11.6667 25C9.83334 25 8.33334 23.5 8.33334 21.6667Z" fill="#FFFFFF" fill-opacity="1.000000" fill-rule="nonzero"/>
	</g>
</svg>
