<svg width="40.000000" height="40.000000" viewBox="0 0 40 40" fill="none" xmlns="http://www.w3.org/2000/svg" xmlns:xlink="http://www.w3.org/1999/xlink">
	<desc>
			Created with Pixso.
	</desc>
	<defs/>
	<path id="Vector" d="M0 20.1118C0 30.0552 7.22168 38.3232 16.6667 40L16.6667 25.5552L11.6667 25.5552L11.6667 20L16.6667 20L16.6667 15.5552C16.6667 10.5552 19.8883 7.77832 24.445 7.77832C25.8883 7.77832 27.445 8 28.8883 8.22168L28.8883 13.3335L26.3333 13.3335C23.8883 13.3335 23.3333 14.5552 23.3333 16.1118L23.3333 20L28.6667 20L27.7783 25.5552L23.3333 25.5552L23.3333 40C32.7783 38.3232 40 30.0566 40 20.1118C40 9.0498 31 0 20 0C9 0 0 9.0498 0 20.1118Z" fill="#3D445C" fill-opacity="1.000000" fill-rule="evenodd"/>
</svg>
