<svg width="38.400024" height="38.399902" viewBox="0 0 38.4 38.3999" fill="none" xmlns="http://www.w3.org/2000/svg" xmlns:xlink="http://www.w3.org/1999/xlink">
	<desc>
			Created with Pixso.
	</desc>
	<defs/>
	<path id="Vector" d="M19.2 0C8.59601 0 0 8.59619 0 19.2002C0 29.8042 8.59601 38.3999 19.2 38.3999C29.804 38.3999 38.4 29.8042 38.4 19.2002C38.4 8.59619 29.804 0 19.2 0ZM14.5 27.1582L10.612 27.1582L10.612 14.646L14.5 14.646L14.5 27.1582ZM12.532 13.1099C11.304 13.1099 10.51 12.2402 10.51 11.1641C10.51 10.0659 11.328 9.22217 12.582 9.22217C13.836 9.22217 14.604 10.0659 14.628 11.1641C14.628 12.2402 13.836 13.1099 12.532 13.1099ZM28.7 27.1582L24.812 27.1582L24.812 20.2241C24.812 18.6099 24.248 17.5142 22.842 17.5142C21.768 17.5142 21.13 18.2559 20.848 18.9702C20.744 19.2241 20.718 19.584 20.718 19.9419L20.718 27.1558L16.828 27.1558L16.828 18.6362C16.828 17.0742 16.778 15.7681 16.726 14.644L20.104 14.644L20.282 16.3818L20.36 16.3818C20.872 15.5659 22.126 14.3618 24.224 14.3618C26.782 14.3618 28.7 16.0762 28.7 19.7598L28.7 27.1582Z" fill="#3D445C" fill-opacity="1.000000" fill-rule="nonzero"/>
</svg>
