<svg width="163.000000" height="47.500366" viewBox="0 0 163 47.5004" fill="none" xmlns="http://www.w3.org/2000/svg" xmlns:xlink="http://www.w3.org/1999/xlink">
	<desc>
			Created with Pixso.
	</desc>
	<defs/>
	<path id="Vector" d="M19.0017 36.6673L19.0017 47.5004L38 36.5269L38 25.6952L19.0017 36.6673Z" fill="#2947A9" fill-opacity="1.000000" fill-rule="nonzero"/>
	<path id="Vector" d="M27.5062 15.745L36.8801 10.3284L19.0017 0L19.0017 10.8328L27.5062 15.745Z" fill="#0B267D" fill-opacity="1.000000" fill-rule="nonzero"/>
	<path id="Vector" d="M11.6182 18.9795L11.6182 29.8158L19.0015 34.0796L19.0015 23.2481L11.6182 18.9795Z" fill="#91A1D4" fill-opacity="1.000000" fill-rule="nonzero"/>
	<path id="Vector" d="M38 12.2701L19.0017 23.2481L19.0017 34.0796L38 23.1061L38 12.2701Z" fill="#2947A9" fill-opacity="1.000000" fill-rule="nonzero"/>
	<path id="Vector" d="M1.13135 10.3221L10.4492 15.7703L19.0015 10.8328L19.0015 0L1.13135 10.3221Z" fill="#2947A9" fill-opacity="1.000000" fill-rule="nonzero"/>
	<path id="Vector" d="M9.3772 31.1104L9.3772 17.68L0 12.2652L0 36.5266L19.0015 47.5L19.0015 36.6669L9.3772 31.1104Z" fill="#91A1D4" fill-opacity="1.000000" fill-rule="nonzero"/>
	<path id="TheBox" d="M76.1512 12.6426L71.2 34L76.2977 34L78.1873 25.8994Q78.429 24.8228 78.8611 24.0904Q79.3006 23.3506 79.9158 22.9771Q79.9941 22.9295 80.0755 22.8881Q80.6336 22.6035 81.3367 22.6035Q82.204 22.6035 82.6822 23.0349Q82.8016 23.1427 82.8968 23.2774Q82.9021 23.2848 82.9073 23.2923Q83.3772 23.9644 83.1092 25.1524L81.0364 34L86.1414 34L88.3899 24.3394Q88.7781 22.6035 88.3387 21.3438Q88.0664 20.5454 87.544 19.9767Q87.2373 19.6429 86.8445 19.3882Q86.8329 19.3807 86.8212 19.3732Q85.7661 18.6997 84.2811 18.6997Q82.7796 18.6997 81.6077 19.3003Q80.7792 19.7276 80.1435 20.3513Q79.8856 20.6043 79.6595 20.8897Q79.5609 21.0152 79.4685 21.1451Q79.3269 21.3441 79.1997 21.5534L81.2488 12.6426L76.1512 12.6426ZM72.6396 18.187L73.5698 14.2027L55.5669 14.2027L54.6367 18.187L61.0894 18.187L57.4272 34L62.5908 34L66.2529 18.187L72.6396 18.187ZM109.12 14.2027L109.12 34L119.198 34Q122.802 34 124.596 32.6084Q125.242 32.107 125.656 31.4577Q126.398 30.2958 126.398 28.6607Q126.398 27.5564 125.974 26.6503Q125.706 26.0779 125.27 25.5845Q124.149 24.3101 121.871 24.0098L121.871 23.9805Q123.862 23.6582 124.852 22.4888Q124.874 22.4622 124.896 22.4351Q125.253 22.0001 125.482 21.506Q125.892 20.6191 125.892 19.542Q125.892 17.739 125.045 16.5308Q124.677 16.0065 124.149 15.5943Q122.413 14.232 118.751 14.2027L109.12 14.2027ZM117.85 22.3033L114.1 22.3033L114.1 17.982L117.85 17.982Q119.563 17.982 120.213 18.8131Q120.612 19.3221 120.612 20.1426Q120.612 20.9632 120.213 21.4721Q119.563 22.3033 117.85 22.3033ZM140.575 19.6153Q138.788 18.6997 136.422 18.6997Q134.108 18.6997 132.306 19.6153Q131.445 20.0546 130.764 20.6879Q130.027 21.3743 129.501 22.2886Q128.497 24.0391 128.497 26.5Q128.497 28.961 129.501 30.7188Q130.017 31.6125 130.737 32.2885Q131.428 32.9367 132.306 33.3848Q134.108 34.3003 136.422 34.3003Q138.788 34.3003 140.575 33.3848Q141.442 32.9407 142.124 32.3001Q142.849 31.6201 143.366 30.7188Q144.369 28.961 144.369 26.5Q144.369 24.0391 143.366 22.2886Q142.839 21.3667 142.097 20.6764Q141.425 20.0506 140.575 19.6153ZM94.0257 33.4141Q95.7102 34.271 97.9295 34.271Q99.6067 34.271 101.035 33.8389Q102.463 33.3994 103.525 32.5938Q104.341 31.9689 104.833 31.1493Q104.981 30.9026 105.1 30.6382L100.903 28.9903Q100.708 29.3882 100.43 29.7155Q100.186 30.0026 99.8777 30.2354Q99.2185 30.7334 98.1419 30.7334Q97.2703 30.7334 96.6258 30.3892Q96.3831 30.2568 96.1778 30.0809Q95.8378 29.7895 95.6004 29.3784Q95.2441 28.7497 95.2276 27.8477L105.613 27.8477Q105.649 27.724 105.68 27.5991Q105.8 27.1174 105.847 26.6172Q105.913 25.9873 105.913 25.4234Q105.913 23.3799 105.1 21.8784Q104.753 21.2372 104.272 20.7201Q103.627 20.0266 102.741 19.5567Q101.203 18.729 99.0135 18.729Q96.3694 18.729 94.4651 19.8716Q93.5448 20.4203 92.8263 21.1639Q92.0582 21.959 91.5208 22.9771Q90.4881 24.94 90.4881 27.4595Q90.4881 29.3573 91.2904 30.8129Q91.3519 30.9246 91.4182 31.0337Q91.7156 31.5208 92.0894 31.9397Q92.8847 32.8311 94.0257 33.4141ZM95.5831 25.0865Q95.7391 24.581 95.9739 24.1197Q96.3164 23.4524 96.8398 22.9898Q96.9656 22.8787 97.1018 22.7793Q97.1066 22.7759 97.1115 22.7724Q97.8196 22.2666 98.8889 22.2666Q99.5481 22.2666 100.024 22.523Q100.185 22.6085 100.323 22.7225Q100.598 22.9503 100.779 23.292Q101.05 23.7974 101.05 24.5811Q101.05 24.8222 101.026 25.0865L95.5831 25.0865ZM156.805 26.4318L162.013 19L156.278 19L153.564 23.9482L150.88 19L144.999 19L150.201 26.4106L144.786 34L150.521 34L153.418 28.8228L156.278 34L162.13 34L156.805 26.4318ZM135.042 22.6747Q135.633 22.3326 136.422 22.3326Q137.31 22.3326 137.935 22.738Q137.944 22.744 137.953 22.75Q138.583 23.1675 138.912 24.0977Q139.242 25.0279 139.242 26.5Q139.242 27.9722 138.912 28.8877Q138.583 29.8033 137.953 30.2354Q137.914 30.262 137.874 30.287Q137.268 30.6675 136.422 30.6675Q135.673 30.6675 135.103 30.3484Q135.009 30.2962 134.921 30.2354Q134.291 29.8033 133.961 28.8877Q133.632 27.9722 133.632 26.5Q133.632 25.0279 133.961 24.0977Q134.291 23.1675 134.921 22.75Q134.98 22.7105 135.042 22.6747ZM118.326 30.3672L114.1 30.3672L114.1 25.9873L118.326 25.9873Q119.74 25.9873 120.429 26.544Q120.622 26.7004 120.761 26.8955Q121.117 27.3949 121.117 28.148Q121.117 28.9655 120.725 29.4915Q120.598 29.6628 120.429 29.8033Q119.74 30.3672 118.326 30.3672Z" fill="#2947A9" fill-opacity="1.000000" fill-rule="evenodd"/>
</svg>
