<svg width="40.000000" height="40.000000" viewBox="0 0 40 40" fill="none" xmlns="http://www.w3.org/2000/svg" xmlns:xlink="http://www.w3.org/1999/xlink">
	<desc>
			Created with Pixso.
	</desc>
	<defs>
		<clipPath id="clip2_77">
			<rect id="function=renovation" width="40.000000" height="40.000000" fill="white" fill-opacity="0"/>
		</clipPath>
	</defs>
	<rect id="function=renovation" width="40.000000" height="40.000000" fill="#FFFFFF" fill-opacity="0"/>
	<g clip-path="url(#clip2_77)">
		<path id="Vector" d="M32.5 4.99988C31.3952 5.00085 30.3359 5.44006 29.5547 6.22131C28.7735 7.00244 28.3342 8.06177 28.3333 9.16663C28.3333 9.7616 28.4633 10.3265 28.69 10.8416L25.4316 14.5066C24.3248 13.7426 23.0117 13.3334 21.6667 13.3333C20.4333 13.3333 19.2933 13.6932 18.3017 14.2766L14.5117 10.4883L14.4733 10.5266C14.8 9.86328 15 9.12488 15 8.33325C15 7.34436 14.7068 6.37769 14.1573 5.55542C13.608 4.73315 12.827 4.09229 11.9134 3.71387C10.9998 3.33545 9.99445 3.23645 9.02454 3.42932C8.05463 3.62231 7.16376 4.09851 6.46448 4.79773C5.7652 5.49695 5.289 6.38794 5.09607 7.35779C4.90314 8.32776 5.00214 9.33301 5.38062 10.2467C5.75903 11.1603 6.3999 11.9412 7.22217 12.4906C8.04437 13.04 9.01111 13.3333 10 13.3333C10.7917 13.3333 11.5283 13.1333 12.1934 12.8066L12.155 12.845L15.945 16.6333C15.3328 17.65 15.0062 18.8131 15 19.9999C15 21.6616 15.6334 23.1649 16.6417 24.335L12.3467 28.6283C11.8653 28.4355 11.3519 28.3354 10.8333 28.3333C8.53668 28.3333 6.66669 30.2015 6.66669 32.4999C6.66669 34.7982 8.53668 36.6666 10.8333 36.6666C13.13 36.6666 15 34.7982 15 32.4999C15 31.965 14.89 31.4565 14.705 30.9849L19.435 26.2549C20.1367 26.5049 20.88 26.6666 21.6667 26.6666C25.3433 26.6666 28.3333 23.6766 28.3333 19.9999C28.3333 18.9399 28.0616 17.9515 27.62 17.0599L31.1483 13.0883C31.575 13.2349 32.025 13.3333 32.5 13.3333C34.7983 13.3333 36.6667 11.465 36.6667 9.16663C36.6667 6.86829 34.7983 4.99988 32.5 4.99988ZM21.6667 23.3333C19.8283 23.3333 18.3333 21.8383 18.3333 19.9999C18.3333 18.1616 19.8283 16.6666 21.6667 16.6666C23.505 16.6666 25 18.1616 25 19.9999C25 21.8383 23.505 23.3333 21.6667 23.3333Z" fill="#FFFFFF" fill-opacity="1.000000" fill-rule="nonzero"/>
	</g>
</svg>
