<svg aria-hidden="true" style="position: absolute; width: 0; height: 0; overflow: hidden;" version="1.1" xmlns="http://www.w3.org/2000/svg" xmlns:xlink="http://www.w3.org/1999/xlink">
<defs>
<symbol id="arrow-right" viewBox="0 0 49 32">
<path fill="#fff" style="fill: var(--color1, #fff)" d="M0 16c0 0.471 0.184 0.924 0.512 1.257s0.772 0.521 1.236 0.521h41.223l-11.001 11.184c-0.162 0.165-0.291 0.361-0.379 0.578s-0.133 0.447-0.133 0.681c0 0.234 0.045 0.465 0.133 0.681s0.217 0.412 0.379 0.578c0.163 0.165 0.356 0.296 0.568 0.386s0.44 0.136 0.67 0.136 0.457-0.046 0.67-0.136c0.212-0.089 0.405-0.22 0.568-0.386l13.982-14.22c0.163-0.165 0.292-0.361 0.38-0.577s0.133-0.448 0.133-0.681-0.045-0.465-0.133-0.681c-0.088-0.216-0.217-0.412-0.38-0.577l-13.982-14.22c-0.162-0.165-0.355-0.296-0.568-0.386s-0.44-0.135-0.67-0.135-0.457 0.046-0.67 0.135c-0.212 0.089-0.405 0.221-0.568 0.386s-0.291 0.361-0.379 0.577-0.133 0.447-0.133 0.681c0 0.234 0.045 0.465 0.133 0.681s0.217 0.412 0.379 0.577l11.001 11.184h-41.223c-0.464 0-0.908 0.187-1.236 0.521s-0.512 0.785-0.512 1.257z"></path>
</symbol>
<symbol id="arrow-left" viewBox="0 0 49 32">
<path fill="#fff" style="fill: var(--color1, #fff)" d="M48.941 16c0-0.471-0.184-0.924-0.512-1.257s-0.773-0.521-1.236-0.521h-41.223l11.001-11.184c0.163-0.165 0.291-0.361 0.379-0.577s0.133-0.447 0.133-0.681c0-0.234-0.045-0.465-0.133-0.681s-0.217-0.412-0.379-0.577c-0.163-0.165-0.355-0.296-0.568-0.386s-0.44-0.135-0.67-0.135c-0.23 0-0.457 0.046-0.67 0.135s-0.405 0.221-0.568 0.386l-13.982 14.22c-0.163 0.165-0.292 0.361-0.38 0.577s-0.133 0.447-0.133 0.681 0.045 0.465 0.133 0.681c0.088 0.216 0.217 0.412 0.38 0.577l13.982 14.22c0.162 0.165 0.355 0.296 0.568 0.386s0.44 0.136 0.67 0.136c0.23 0 0.457-0.046 0.67-0.136s0.405-0.22 0.568-0.386 0.291-0.362 0.379-0.578c0.088-0.216 0.133-0.447 0.133-0.681s-0.045-0.465-0.133-0.681c-0.088-0.216-0.217-0.412-0.379-0.578l-11.001-11.184h41.223c0.463 0 0.908-0.187 1.236-0.521s0.512-0.785 0.512-1.257z"></path>
</symbol>
<symbol id="architect" viewBox="0 0 32 32">
<path d="M8.48 25.040l0.333 2.96 2.16-2.053 3.693-10.133c-0.907-0.227-1.707-0.68-2.36-1.307l-3.827 10.533zM19.693 14.507c-0.653 0.627-1.467 1.080-2.36 1.307l3.693 10.133 2.16 2.053 0.347-2.96-3.84-10.533zM19.92 11.467c0.4-2.080-0.8-3.92-2.587-4.56v-1.573c0-0.733-0.6-1.333-1.333-1.333s-1.333 0.6-1.333 1.333v1.573c-1.547 0.56-2.667 2.027-2.667 3.76 0 2.453 2.213 4.4 4.747 3.933 1.573-0.293 2.867-1.56 3.173-3.133zM16 12c-0.733 0-1.333-0.6-1.333-1.333s0.6-1.333 1.333-1.333c0.733 0 1.333 0.6 1.333 1.333s-0.6 1.333-1.333 1.333z"></path>
</symbol>
<symbol id="arrow-down" viewBox="0 0 32 32">
<path fill="#2947a9" style="fill: var(--color2, #2947a9)" d="M16 0c-8.832 0-16 7.168-16 16s7.168 16 16 16c8.832 0 16-7.168 16-15.999s-7.168-16-16-16zM15.44 20.24l-4.464-4.463c-0.512-0.512-0.16-1.376 0.56-1.376h8.944c0.72 0 1.072 0.864 0.56 1.36l-4.464 4.463c-0.32 0.321-0.832 0.321-1.136 0.016z"></path>
</symbol>
<symbol id="call" viewBox="0 0 32 32">
<path fill="#f9995d" style="fill: var(--color3, #f9995d)" d="M29.092 10.181c0.772 0 1.511 0.307 2.057 0.852s0.852 1.286 0.852 2.057v5.819c0 0.772-0.307 1.512-0.852 2.057s-1.285 0.852-2.057 0.852h-1.545c-0.355 2.812-1.723 5.398-3.849 7.273s-4.863 2.909-7.698 2.909v-2.909c2.315 0 4.535-0.919 6.171-2.556s2.556-3.857 2.556-6.171v-8.728c0-2.315-0.92-4.535-2.556-6.171s-3.857-2.556-6.171-2.556c-2.315 0-4.535 0.92-6.172 2.556s-2.556 3.857-2.556 6.171v10.182h-4.364c-0.772 0-1.512-0.307-2.057-0.852s-0.852-1.285-0.852-2.057v-5.819c0-0.772 0.306-1.512 0.852-2.057s1.286-0.852 2.057-0.852h1.545c0.355-2.812 1.724-5.398 3.85-7.272s4.863-2.909 7.697-2.909c2.834 0 5.571 1.034 7.697 2.909s3.495 4.46 3.85 7.272h1.545zM9.833 21.505l1.542-2.467c1.386 0.869 2.99 1.328 4.626 1.325 1.636 0.003 3.239-0.457 4.626-1.325l1.542 2.467c-1.848 1.158-3.986 1.771-6.168 1.767-2.181 0.003-4.319-0.609-6.168-1.767z"></path>
</symbol>
<symbol id="construction" viewBox="0 0 32 32">
<path fill="#292e3d" style="fill: var(--color4, #292e3d)" d="M25.321 2.667h-13.308c-1.481 0-2.68 1.199-2.68 2.68v7.516l-6.269 6.189c-0.188 0.186-0.316 0.423-0.369 0.682s-0.027 0.528 0.073 0.772c0.1 0.244 0.271 0.454 0.49 0.601s0.478 0.226 0.742 0.226v6.667c0 0.354 0.141 0.693 0.391 0.943s0.589 0.39 0.943 0.39h21.333c0.354 0 0.693-0.14 0.943-0.39s0.391-0.589 0.391-0.943v-22.655c0-1.48-1.197-2.679-2.679-2.679zM14.563 20.148v6.519h-7.896v-7.424l3.983-3.932 3.913 4.004v0.833zM17.333 12h-2.667v-2.667h2.667v2.667zM22.667 22.667h-2.667v-2.667h2.667v2.667zM22.667 17.333h-2.667v-2.667h2.667v2.667zM22.667 12h-2.667v-2.667h2.667v2.667z"></path>
<path fill="#14171f" style="fill: var(--color5, #14171f)" d="M9.333 20h2.667v2.667h-2.667v-2.667z"></path>
</symbol>
<symbol id="consult" viewBox="0 0 32 32">
<path d="M14.667 8h4l4.387-4.4c0.124-0.125 0.271-0.224 0.434-0.292s0.337-0.103 0.513-0.103c0.176 0 0.35 0.035 0.513 0.103s0.31 0.167 0.434 0.292l3.44 3.453c0.248 0.25 0.388 0.588 0.388 0.94s-0.139 0.69-0.388 0.94l-3.053 3.067h-10.667v2.667c0 0.354-0.14 0.693-0.39 0.943s-0.589 0.39-0.943 0.39c-0.354 0-0.693-0.14-0.943-0.39s-0.39-0.589-0.39-0.943v-4c0-0.707 0.281-1.385 0.781-1.886s1.178-0.781 1.886-0.781zM6.667 14.667v5.333l-3.053 3.053c-0.248 0.25-0.388 0.588-0.388 0.94s0.139 0.69 0.388 0.94l3.44 3.453c0.124 0.125 0.271 0.224 0.434 0.292s0.337 0.102 0.513 0.102c0.176 0 0.35-0.035 0.513-0.102s0.31-0.167 0.434-0.292l5.72-5.72h5.333c0.354 0 0.693-0.14 0.943-0.391s0.39-0.589 0.39-0.943v-1.333h1.333c0.354 0 0.693-0.14 0.943-0.39s0.391-0.589 0.391-0.943v-1.333h1.333c0.354 0 0.693-0.14 0.943-0.39s0.39-0.589 0.39-0.943v-1.333h-9.333v1.333c0 0.707-0.281 1.385-0.781 1.886s-1.178 0.781-1.886 0.781h-2.667c-0.707 0-1.386-0.281-1.886-0.781s-0.781-1.178-0.781-1.886v-4l-2.667 2.667z"></path>
</symbol>
<symbol id="design" viewBox="0 0 32 32">
<path fill="#f9995d" style="fill: var(--color3, #f9995d)" d="M32 24.27l-9.070-9.070 2.566-2.566-6.129-6.129-2.566 2.566-9.070-9.070-7.73 7.73 9.070 9.071-7.779 7.779v6.129h6.129l7.779-7.779 9.070 9.070 7.73-7.73zM11.391 14.48l-6.766-6.75 3.105-3.105 2.076 2.076-1.945 1.945 2.304 2.304 1.945-1.945 2.37 2.37-3.089 3.105zM17.52 20.609l3.105-3.105 2.37 2.37-1.945 1.945 2.304 2.304 1.945-1.945 2.076 2.076-3.105 3.105-6.75-6.75zM21.12 4.761l4.148-4.15 6.125 6.125-4.148 4.15-6.125-6.125z"></path>
</symbol>
<symbol id="electric" viewBox="0 0 32 32">
<path fill="#fff" style="fill: var(--color1, #fff)" d="M28 18.667c0-0.733-0.6-1.333-1.333-1.333h-2.667v2.667h2.667c0.733 0 1.333-0.6 1.333-1.333zM26.667 22.667h-2.667v2.667h2.667c0.733 0 1.333-0.6 1.333-1.333s-0.6-1.333-1.333-1.333zM16 18.667h-2.667v5.333h2.667c0 1.467 1.2 2.667 2.667 2.667h4v-10.667h-4c-1.467 0-2.667 1.2-2.667 2.667z"></path>
<path fill="#fff" style="fill: var(--color1, #fff)" d="M6.667 17.333c0-1.467 1.2-2.667 2.667-2.667h2c2.573 0 4.667-2.093 4.667-4.667s-2.093-4.667-4.667-4.667h-4.667c-0.733 0-1.333 0.6-1.333 1.333s0.6 1.333 1.333 1.333h4.667c1.107 0 2 0.893 2 2s-0.893 2-2 2h-2c-2.947 0-5.333 2.387-5.333 5.333s2.387 5.333 5.333 5.333h2.667v-2.667h-2.667c-1.467 0-2.667-1.2-2.667-2.667z"></path>
</symbol>
<symbol id="facebook" viewBox="0 0 32 32">
<path fill="#3d445c" style="fill: var(--color6, #3d445c)" d="M0 16.089c0 7.955 5.777 14.569 13.333 15.911v-11.556h-4v-4.444h4v-3.556c0-4 2.577-6.221 6.223-6.221 1.155 0 2.4 0.177 3.555 0.355v4.089h-2.044c-1.956 0-2.4 0.977-2.4 2.223v3.111h4.267l-0.711 4.444h-3.556v11.556c7.556-1.341 13.333-7.955 13.333-15.911 0-8.85-7.2-16.089-16-16.089s-16 7.24-16 16.089z"></path>
</symbol>
<symbol id="linkedin" viewBox="0 0 32 32">
<path fill="#3d445c" style="fill: var(--color6, #3d445c)" d="M16 0c-8.837 0-16 7.163-16 16s7.163 16 16 16c8.837 0 16-7.163 16-16s-7.163-16-16-16zM12.083 22.632h-3.24v-10.427h3.24v10.427zM10.443 10.925c-1.023 0-1.685-0.725-1.685-1.621 0-0.915 0.682-1.618 1.727-1.618s1.685 0.703 1.705 1.618c0 0.897-0.66 1.621-1.747 1.621zM23.917 22.632h-3.24v-5.778c0-1.345-0.47-2.258-1.642-2.258-0.895 0-1.427 0.618-1.662 1.213-0.087 0.212-0.108 0.512-0.108 0.81v6.012h-3.242v-7.1c0-1.302-0.042-2.39-0.085-3.327h2.815l0.148 1.448h0.065c0.427-0.68 1.472-1.683 3.22-1.683 2.132 0 3.73 1.429 3.73 4.498v6.165z"></path>
</symbol>
<symbol id="logo" viewBox="0 0 110 32">
<path fill="#2947a9" style="fill: var(--color2, #2947a9)" d="M12.801 24.702v7.298l12.799-7.393v-7.297l-12.799 7.392z"></path>
<path fill="#0b267d" style="fill: var(--color7, #0b267d)" d="M18.53 10.607l6.315-3.649-12.044-6.958v7.298l5.729 3.309z"></path>
<path fill="#91a1d4" style="fill: var(--color8, #91a1d4)" d="M7.827 12.786v7.3l4.974 2.872v-7.297l-4.974-2.876z"></path>
<path fill="#2947a9" style="fill: var(--color2, #2947a9)" d="M25.6 8.266l-12.799 7.396v7.297l12.799-7.393v-7.3z"></path>
<path fill="#2947a9" style="fill: var(--color2, #2947a9)" d="M0.762 6.954l6.277 3.67 5.761-3.326v-7.298l-12.039 6.954z"></path>
<path fill="#91a1d4" style="fill: var(--color8, #91a1d4)" d="M6.317 20.958v-9.048l-6.317-3.648v16.344l12.801 7.393v-7.298l-6.484-3.743z"></path>
<path fill="#2947a9" style="fill: var(--color2, #2947a9)" d="M51.301 8.517l-3.336 14.388h3.434l1.273-5.457q0.163-0.725 0.454-1.219 0.296-0.498 0.711-0.75 0.053-0.032 0.108-0.060 0.376-0.192 0.85-0.192 0.584 0 0.906 0.291 0.080 0.073 0.145 0.163 0.004 0.005 0.007 0.010 0.317 0.453 0.136 1.253l-1.396 5.96h3.439l1.515-6.508q0.262-1.169-0.035-2.018-0.183-0.538-0.535-0.921-0.207-0.225-0.471-0.396-0.008-0.005-0.016-0.010-0.711-0.454-1.711-0.454-1.012 0-1.801 0.405-0.558 0.288-0.986 0.708-0.174 0.17-0.326 0.363-0.066 0.085-0.129 0.172-0.095 0.134-0.181 0.275l1.38-6.003h-3.434zM48.936 12.252l0.627-2.684h-12.128l-0.627 2.684h4.347l-2.467 10.653h3.479l2.467-10.653h4.303zM73.512 9.568v13.337h6.789q2.428 0 3.637-0.938 0.435-0.338 0.714-0.775 0.5-0.783 0.5-1.884 0-0.744-0.286-1.354-0.181-0.386-0.474-0.718-0.755-0.859-2.29-1.061v-0.020q1.341-0.217 2.008-1.005 0.015-0.018 0.030-0.036 0.24-0.293 0.395-0.626 0.276-0.598 0.276-1.323 0-1.215-0.571-2.029-0.248-0.353-0.604-0.631-1.169-0.918-3.637-0.938h-6.488zM79.393 15.025h-2.526v-2.911h2.526q1.154 0 1.592 0.56 0.269 0.343 0.269 0.896t-0.269 0.896q-0.438 0.56-1.592 0.56zM94.702 13.214q-1.204-0.617-2.798-0.617-1.559 0-2.773 0.617-0.58 0.296-1.039 0.723-0.496 0.462-0.851 1.078-0.676 1.179-0.676 2.837t0.676 2.842q0.348 0.602 0.833 1.057 0.466 0.437 1.057 0.739 1.214 0.617 2.773 0.617 1.594 0 2.798-0.617 0.584-0.299 1.044-0.731 0.488-0.458 0.837-1.065 0.676-1.184 0.676-2.842t-0.676-2.837q-0.355-0.621-0.855-1.086-0.453-0.422-1.025-0.715zM63.343 22.51q1.135 0.577 2.63 0.577 1.13 0 2.092-0.291 0.962-0.296 1.677-0.839 0.55-0.421 0.881-0.973 0.1-0.166 0.18-0.344l-2.827-1.11q-0.131 0.268-0.319 0.489-0.164 0.193-0.372 0.35-0.444 0.335-1.169 0.335-0.587 0-1.021-0.232-0.163-0.089-0.302-0.208-0.229-0.196-0.389-0.473-0.24-0.424-0.251-1.031h6.996q0.024-0.083 0.045-0.167 0.081-0.325 0.112-0.662 0.044-0.424 0.044-0.804 0-1.377-0.548-2.388-0.234-0.432-0.558-0.78-0.435-0.467-1.031-0.784-1.036-0.558-2.511-0.558-1.781 0-3.064 0.77-0.62 0.37-1.104 0.871-0.517 0.536-0.88 1.222-0.696 1.322-0.696 3.020 0 1.279 0.541 2.259 0.041 0.075 0.086 0.149 0.2 0.328 0.452 0.61 0.536 0.601 1.304 0.993zM64.392 16.9q0.105-0.341 0.263-0.651 0.231-0.45 0.583-0.761 0.085-0.075 0.177-0.142 0.003-0.002 0.007-0.005 0.477-0.341 1.197-0.341 0.444 0 0.765 0.173 0.108 0.058 0.201 0.134 0.185 0.153 0.307 0.384 0.183 0.34 0.183 0.868 0 0.162-0.016 0.34h-3.667zM105.636 17.807l3.509-5.007h-3.864l-1.828 3.334-1.808-3.334h-3.962l3.504 4.992-3.648 5.113h3.864l1.952-3.488 1.927 3.488h3.942l-3.587-5.099zM90.975 15.275q0.398-0.23 0.93-0.23 0.598 0 1.019 0.273 0.006 0.004 0.012 0.008 0.424 0.281 0.646 0.908t0.222 1.618-0.222 1.609q-0.222 0.617-0.646 0.908-0.026 0.018-0.053 0.035-0.408 0.256-0.978 0.256-0.505 0-0.889-0.215-0.063-0.035-0.123-0.076-0.424-0.291-0.647-0.908t-0.222-1.609 0.222-1.618q0.222-0.627 0.647-0.908 0.040-0.027 0.082-0.051zM79.714 20.458h-2.847v-2.951h2.847q0.953 0 1.417 0.375 0.13 0.105 0.224 0.237 0.24 0.336 0.24 0.844 0 0.551-0.264 0.905-0.086 0.115-0.199 0.21-0.464 0.38-1.417 0.38z"></path>
</symbol>
<symbol id="renovation" viewBox="0 0 32 32">
<path fill="#fff" style="fill: var(--color1, #fff)" d="M26 4c-0.884 0.001-1.731 0.352-2.356 0.977s-0.976 1.472-0.977 2.356c0 0.476 0.104 0.928 0.285 1.34l-2.607 2.932c-0.885-0.611-1.936-0.939-3.012-0.939-0.987 0-1.899 0.288-2.692 0.755l-3.032-3.031-0.031 0.031c0.261-0.531 0.421-1.121 0.421-1.755 0-0.791-0.235-1.564-0.674-2.222s-1.064-1.171-1.795-1.473-1.535-0.382-2.311-0.228c-0.776 0.154-1.489 0.535-2.048 1.095s-0.94 1.272-1.095 2.048c-0.154 0.776-0.075 1.58 0.228 2.311s0.815 1.356 1.473 1.795c0.658 0.44 1.431 0.674 2.222 0.674 0.633 0 1.223-0.16 1.755-0.421l-0.031 0.031 3.032 3.031c-0.49 0.813-0.751 1.744-0.756 2.693 0 1.329 0.507 2.532 1.313 3.468l-3.436 3.435c-0.385-0.154-0.796-0.234-1.211-0.236-1.837 0-3.333 1.495-3.333 3.333s1.496 3.333 3.333 3.333c1.837 0 3.333-1.495 3.333-3.333 0-0.428-0.088-0.835-0.236-1.212l3.784-3.784c0.561 0.2 1.156 0.329 1.785 0.329 2.941 0 5.333-2.392 5.333-5.333 0-0.848-0.217-1.639-0.571-2.352l2.823-3.177c0.341 0.117 0.701 0.196 1.081 0.196 1.839 0 3.333-1.495 3.333-3.333s-1.495-3.333-3.333-3.333zM17.333 18.667c-1.471 0-2.667-1.196-2.667-2.667s1.196-2.667 2.667-2.667c1.471 0 2.667 1.196 2.667 2.667s-1.196 2.667-2.667 2.667z"></path>
</symbol>
<symbol id="repair" viewBox="0 0 32 32">
<path fill="#fff" style="fill: var(--color1, #fff)" d="M24 21.333h-2.667v-1.333h-10.667v1.333h-2.667v-1.333h-5.333v6.667h26.667v-6.667h-5.333v1.333zM26.667 10.667h-4v-2.667c0-1.467-1.2-2.667-2.667-2.667h-8c-1.467 0-2.667 1.2-2.667 2.667v2.667h-4c-1.467 0-2.667 1.2-2.667 2.667v5.333h5.333v-2.667h2.667v2.667h10.667v-2.667h2.667v2.667h5.333v-5.333c0-1.467-1.2-2.667-2.667-2.667zM20 10.667h-8v-2.667h8v2.667z"></path>
</symbol>
<symbol id="twitter" viewBox="0 0 32 32">
<path fill="#3d445c" style="fill: var(--color6, #3d445c)" d="M16 0c-8.837 0-16 7.163-16 16s7.163 16 16 16c8.837 0 16-7.163 16-16s-7.163-16-16-16zM22.508 13.107c0.007 0.137 0.008 0.274 0.008 0.406 0 4.167-3.168 8.969-8.965 8.969-1.713 0.003-3.39-0.489-4.83-1.417 0.245 0.030 0.497 0.042 0.752 0.042 1.477 0 2.835-0.502 3.913-1.348-0.657-0.013-1.294-0.23-1.822-0.623s-0.92-0.939-1.122-1.564c0.472 0.090 0.958 0.071 1.422-0.055-0.713-0.144-1.355-0.531-1.816-1.094s-0.713-1.269-0.713-1.996v-0.038c0.425 0.235 0.912 0.378 1.428 0.395-0.669-0.445-1.142-1.129-1.323-1.912s-0.057-1.605 0.348-2.299c0.792 0.973 1.779 1.77 2.898 2.337s2.344 0.894 3.597 0.958c-0.159-0.676-0.091-1.386 0.195-2.019s0.773-1.154 1.385-1.482c0.612-0.328 1.316-0.444 2.001-0.331s1.314 0.45 1.788 0.957c0.705-0.14 1.382-0.398 2-0.765-0.235 0.73-0.727 1.351-1.385 1.745 0.625-0.075 1.235-0.243 1.81-0.498-0.422 0.633-0.955 1.186-1.572 1.632z"></path>
</symbol>
</defs>
</svg>
