<svg width="38.399994" height="38.399902" viewBox="0 0 38.4 38.3999" fill="none" xmlns="http://www.w3.org/2000/svg" xmlns:xlink="http://www.w3.org/1999/xlink">
	<desc>
			Created with Pixso.
	</desc>
	<defs/>
	<path id="Vector" d="M19.2 0C8.59601 0 0 8.59619 0 19.2002C0 29.8042 8.59601 38.3999 19.2 38.3999C29.804 38.3999 38.4 29.8042 38.4 19.2002C38.4 8.59619 29.804 0 19.2 0ZM27.01 15.728C27.018 15.8921 27.02 16.0562 27.02 16.2158C27.02 21.2158 23.218 26.978 16.262 26.978C14.2066 26.9814 12.1939 26.3911 10.466 25.2778C10.76 25.314 11.062 25.3281 11.368 25.3281C13.14 25.3281 14.77 24.7261 16.064 23.71C15.2755 23.6943 14.5114 23.4336 13.8782 22.9629C13.2451 22.4927 12.7745 21.8364 12.532 21.0859C13.0983 21.1938 13.6817 21.1709 14.238 21.02C13.3821 20.8467 12.6124 20.3833 12.0594 19.7075C11.5064 19.0317 11.2042 18.1851 11.204 17.312L11.204 17.2661C11.714 17.5479 12.298 17.7202 12.918 17.7402C12.1156 17.2061 11.5475 16.3853 11.3301 15.4463C11.1126 14.5073 11.2621 13.5205 11.748 12.688C12.6979 13.856 13.8825 14.8115 15.2252 15.4927C16.5677 16.1738 18.0385 16.5654 19.542 16.6421C19.3508 15.8306 19.4331 14.979 19.776 14.2192C20.1189 13.459 20.7032 12.834 21.4382 12.4404C22.173 12.0469 23.0173 11.9072 23.8398 12.0435C24.6622 12.1792 25.4167 12.583 25.986 13.1919C26.8323 13.0244 27.644 12.7139 28.386 12.2739C28.1039 13.1504 27.5134 13.8945 26.724 14.3682C27.4737 14.2778 28.2057 14.0762 28.896 13.77C28.389 14.5298 27.7502 15.1929 27.01 15.728Z" fill="#3D445C" fill-opacity="1.000000" fill-rule="nonzero"/>
</svg>
